<svg width="268" height="38" viewBox="0 0 268 38" fill="none" xmlns="http://www.w3.org/2000/svg">
<path d="M11.267 1.77648C15.3566 -0.0794209 19.9802 -0.496249 24.3499 0.59702C28.7195 1.69029 32.565 4.22601 35.2309 7.77213C37.8969 11.3182 39.2185 15.6554 38.9705 20.0445C38.7225 24.4336 36.9203 28.6031 33.8709 31.8426C30.8215 35.0822 26.7136 37.1912 22.2472 37.8105C17.7807 38.4298 13.2321 37.5209 9.37629 35.2388C5.52049 32.9567 2.59609 29.4425 1.10137 25.295C-0.393341 21.1476 -0.365891 16.6234 1.17905 12.4934L19.5 19L11.267 1.77648Z" fill="#2D83D1"/>
<path d="M51.2094 30C50.8894 30 50.6094 29.89 50.3694 29.67C50.1494 29.43 50.0394 29.15 50.0394 28.83V8.7H42.9294C42.6094 8.7 42.3494 8.6 42.1494 8.4C41.9494 8.2 41.8494 7.95 41.8494 7.65C41.8494 7.33 41.9494 7.07 42.1494 6.87C42.3494 6.67 42.6094 6.57 42.9294 6.57H59.5194C59.8394 6.57 60.0994 6.67 60.2994 6.87C60.4994 7.07 60.5994 7.33 60.5994 7.65C60.5994 7.95 60.4994 8.2 60.2994 8.4C60.0994 8.6 59.8394 8.7 59.5194 8.7H52.3794V28.83C52.3794 29.15 52.2694 29.43 52.0494 29.67C51.8294 29.89 51.5494 30 51.2094 30ZM60.7082 30C59.9482 30 59.5682 29.62 59.5682 28.86V14.73C59.5682 13.97 59.9482 13.59 60.7082 13.59C61.4682 13.59 61.8482 13.97 61.8482 14.73V16.02C62.4482 15.22 63.1882 14.59 64.0682 14.13C64.9482 13.65 65.9182 13.41 66.9782 13.41C67.8982 13.41 68.6082 13.54 69.1082 13.8C69.6082 14.06 69.7982 14.44 69.6782 14.94C69.5782 15.4 69.3382 15.64 68.9582 15.66C68.5982 15.66 68.1682 15.64 67.6682 15.6C66.5482 15.5 65.5482 15.62 64.6682 15.96C63.8082 16.28 63.1182 16.78 62.5982 17.46C62.0982 18.14 61.8482 18.95 61.8482 19.89V28.86C61.8482 29.62 61.4682 30 60.7082 30ZM79.5472 30.15C77.9272 30.15 76.4872 29.8 75.2272 29.1C73.9872 28.38 73.0072 27.39 72.2872 26.13C71.5872 24.87 71.2372 23.43 71.2372 21.81C71.2372 20.17 71.5672 18.73 72.2272 17.49C72.9072 16.23 73.8372 15.24 75.0172 14.52C76.1972 13.8 77.5572 13.44 79.0972 13.44C80.6172 13.44 81.9372 13.79 83.0572 14.49C84.1972 15.17 85.0772 16.12 85.6972 17.34C86.3172 18.56 86.6272 19.95 86.6272 21.51C86.6272 21.83 86.5272 22.09 86.3272 22.29C86.1272 22.47 85.8672 22.56 85.5472 22.56H73.4272C73.5472 23.64 73.8772 24.6 74.4172 25.44C74.9572 26.26 75.6672 26.91 76.5472 27.39C77.4272 27.85 78.4272 28.08 79.5472 28.08C80.2672 28.08 80.9872 27.96 81.7072 27.72C82.4472 27.46 83.0372 27.14 83.4772 26.76C83.6972 26.58 83.9472 26.49 84.2272 26.49C84.5072 26.47 84.7472 26.54 84.9472 26.7C85.2072 26.94 85.3372 27.2 85.3372 27.48C85.3572 27.76 85.2472 28 85.0072 28.2C84.3472 28.76 83.5072 29.23 82.4872 29.61C81.4672 29.97 80.4872 30.15 79.5472 30.15ZM79.0972 15.51C77.5572 15.51 76.2872 15.99 75.2872 16.95C74.2872 17.89 73.6872 19.12 73.4872 20.64H84.4672C84.3072 19.12 83.7472 17.89 82.7872 16.95C81.8472 15.99 80.6172 15.51 79.0972 15.51ZM94.075 30C92.875 30 91.885 29.52 91.105 28.56C90.325 27.58 89.935 26.33 89.935 24.81V7.71C89.935 7.37 90.035 7.1 90.235 6.9C90.455 6.68 90.735 6.57 91.075 6.57C91.415 6.57 91.685 6.68 91.885 6.9C92.105 7.1 92.215 7.37 92.215 7.71V24.81C92.215 25.67 92.385 26.37 92.725 26.91C93.085 27.45 93.535 27.72 94.075 27.72H94.825C95.125 27.72 95.365 27.83 95.545 28.05C95.725 28.25 95.815 28.52 95.815 28.86C95.815 29.2 95.685 29.48 95.425 29.7C95.185 29.9 94.865 30 94.465 30H94.075ZM102.542 30C101.342 30 100.352 29.52 99.5718 28.56C98.7918 27.58 98.4018 26.33 98.4018 24.81V7.71C98.4018 7.37 98.5018 7.1 98.7018 6.9C98.9218 6.68 99.2018 6.57 99.5418 6.57C99.8818 6.57 100.152 6.68 100.352 6.9C100.572 7.1 100.682 7.37 100.682 7.71V24.81C100.682 25.67 100.852 26.37 101.192 26.91C101.552 27.45 102.002 27.72 102.542 27.72H103.292C103.592 27.72 103.832 27.83 104.012 28.05C104.192 28.25 104.282 28.52 104.282 28.86C104.282 29.2 104.152 29.48 103.892 29.7C103.652 29.9 103.332 30 102.932 30H102.542ZM114.03 30.15C112.43 30.15 111 29.79 109.74 29.07C108.48 28.35 107.49 27.36 106.77 26.1C106.05 24.84 105.69 23.41 105.69 21.81C105.69 20.19 106.05 18.75 106.77 17.49C107.49 16.23 108.48 15.24 109.74 14.52C111 13.8 112.43 13.44 114.03 13.44C115.63 13.44 117.05 13.8 118.29 14.52C119.55 15.24 120.54 16.23 121.26 17.49C121.98 18.75 122.35 20.19 122.37 21.81C122.37 23.41 122 24.84 121.26 26.1C120.54 27.36 119.55 28.35 118.29 29.07C117.05 29.79 115.63 30.15 114.03 30.15ZM114.03 28.05C115.19 28.05 116.23 27.78 117.15 27.24C118.07 26.7 118.79 25.96 119.31 25.02C119.83 24.08 120.09 23.01 120.09 21.81C120.09 20.61 119.83 19.54 119.31 18.6C118.79 17.64 118.07 16.89 117.15 16.35C116.23 15.81 115.19 15.54 114.03 15.54C112.87 15.54 111.83 15.81 110.91 16.35C109.99 16.89 109.26 17.64 108.72 18.6C108.2 19.54 107.94 20.61 107.94 21.81C107.94 23.01 108.2 24.08 108.72 25.02C109.26 25.96 109.99 26.7 110.91 27.24C111.83 27.78 112.87 28.05 114.03 28.05ZM134.662 30C134.202 30 133.872 29.81 133.672 29.43C133.472 29.05 133.452 28.68 133.612 28.32L142.432 7.38C142.652 6.84 143.032 6.57 143.572 6.57C144.092 6.57 144.462 6.84 144.682 7.38L153.532 28.35C153.712 28.73 153.682 29.1 153.442 29.46C153.222 29.82 152.902 30 152.482 30C151.942 30 151.572 29.76 151.372 29.28L149.392 24.42H137.752L135.742 29.28C135.642 29.52 135.492 29.7 135.292 29.82C135.112 29.94 134.902 30 134.662 30ZM138.592 22.41H148.552L143.572 10.38L138.592 22.41ZM157.916 30C157.556 30 157.266 29.9 157.046 29.7C156.846 29.48 156.746 29.2 156.746 28.86V14.76C156.746 14.4 156.846 14.12 157.046 13.92C157.266 13.7 157.556 13.59 157.916 13.59C158.256 13.59 158.526 13.7 158.726 13.92C158.946 14.12 159.056 14.4 159.056 14.76V15.78C159.696 15.04 160.486 14.46 161.426 14.04C162.386 13.62 163.416 13.41 164.516 13.41C165.936 13.41 167.206 13.71 168.326 14.31C169.446 14.89 170.326 15.75 170.966 16.89C171.626 18.03 171.956 19.42 171.956 21.06V28.86C171.956 29.18 171.846 29.45 171.626 29.67C171.406 29.89 171.136 30 170.816 30C170.476 30 170.196 29.89 169.976 29.67C169.756 29.45 169.646 29.18 169.646 28.86V21.06C169.646 19.2 169.126 17.83 168.086 16.95C167.066 16.05 165.796 15.6 164.276 15.6C163.296 15.6 162.406 15.79 161.606 16.17C160.826 16.55 160.206 17.07 159.746 17.73C159.286 18.39 159.056 19.14 159.056 19.98V28.86C159.056 29.2 158.946 29.48 158.726 29.7C158.526 29.9 158.256 30 157.916 30ZM184.279 30.15C182.739 30.15 181.359 29.79 180.139 29.07C178.919 28.33 177.949 27.33 177.229 26.07C176.529 24.81 176.179 23.39 176.179 21.81C176.179 20.21 176.539 18.78 177.259 17.52C177.999 16.26 178.999 15.27 180.259 14.55C181.519 13.81 182.939 13.44 184.519 13.44C186.099 13.44 187.509 13.81 188.749 14.55C190.009 15.27 190.999 16.26 191.719 17.52C192.459 18.78 192.839 20.21 192.859 21.81V28.86C192.859 29.2 192.749 29.48 192.529 29.7C192.309 29.9 192.029 30 191.689 30C191.349 30 191.069 29.9 190.849 29.7C190.629 29.48 190.519 29.2 190.519 28.86V27.03C189.839 27.99 188.959 28.75 187.879 29.31C186.799 29.87 185.599 30.15 184.279 30.15ZM184.519 28.05C185.679 28.05 186.709 27.78 187.609 27.24C188.529 26.7 189.249 25.96 189.769 25.02C190.309 24.06 190.579 22.99 190.579 21.81C190.579 20.61 190.309 19.54 189.769 18.6C189.249 17.66 188.529 16.92 187.609 16.38C186.709 15.82 185.679 15.54 184.519 15.54C183.379 15.54 182.349 15.82 181.429 16.38C180.509 16.92 179.779 17.66 179.239 18.6C178.699 19.54 178.429 20.61 178.429 21.81C178.429 22.99 178.699 24.06 179.239 25.02C179.779 25.96 180.509 26.7 181.429 27.24C182.349 27.78 183.379 28.05 184.519 28.05ZM200.891 30C199.691 30 198.701 29.52 197.921 28.56C197.141 27.58 196.751 26.33 196.751 24.81V7.71C196.751 7.37 196.851 7.1 197.051 6.9C197.271 6.68 197.551 6.57 197.891 6.57C198.231 6.57 198.501 6.68 198.701 6.9C198.921 7.1 199.031 7.37 199.031 7.71V24.81C199.031 25.67 199.201 26.37 199.541 26.91C199.901 27.45 200.351 27.72 200.891 27.72H201.641C201.941 27.72 202.181 27.83 202.361 28.05C202.541 28.25 202.631 28.52 202.631 28.86C202.631 29.2 202.501 29.48 202.241 29.7C202.001 29.9 201.681 30 201.281 30H200.891ZM208.638 37.14C208.478 37.14 208.298 37.1 208.098 37.02C207.418 36.72 207.228 36.24 207.528 35.58L210.528 29.01L210.498 28.98L203.808 15.12C203.668 14.82 203.648 14.54 203.748 14.28C203.848 14.02 204.048 13.82 204.348 13.68C205.008 13.38 205.488 13.55 205.788 14.19L211.638 26.52L217.218 14.22C217.518 13.58 217.998 13.4 218.658 13.68C219.338 13.96 219.528 14.43 219.228 15.09L209.508 36.45C209.308 36.91 209.018 37.14 208.638 37.14ZM222.554 30C221.854 30 221.504 29.65 221.504 28.95C221.504 28.61 221.584 28.36 221.744 28.2L231.554 15.69H222.434C221.734 15.69 221.384 15.34 221.384 14.64C221.384 13.94 221.734 13.59 222.434 13.59H233.564C234.264 13.59 234.614 13.94 234.614 14.64C234.614 14.94 234.554 15.17 234.434 15.33L224.624 27.9H233.684C234.384 27.9 234.734 28.25 234.734 28.95C234.734 29.65 234.384 30 233.684 30H222.554ZM245.573 30.15C243.953 30.15 242.513 29.8 241.253 29.1C240.013 28.38 239.033 27.39 238.313 26.13C237.613 24.87 237.263 23.43 237.263 21.81C237.263 20.17 237.593 18.73 238.253 17.49C238.933 16.23 239.863 15.24 241.043 14.52C242.223 13.8 243.583 13.44 245.123 13.44C246.643 13.44 247.963 13.79 249.083 14.49C250.223 15.17 251.103 16.12 251.723 17.34C252.343 18.56 252.653 19.95 252.653 21.51C252.653 21.83 252.553 22.09 252.353 22.29C252.153 22.47 251.893 22.56 251.573 22.56H239.453C239.573 23.64 239.903 24.6 240.443 25.44C240.983 26.26 241.693 26.91 242.573 27.39C243.453 27.85 244.453 28.08 245.573 28.08C246.293 28.08 247.013 27.96 247.733 27.72C248.473 27.46 249.063 27.14 249.503 26.76C249.723 26.58 249.973 26.49 250.253 26.49C250.533 26.47 250.773 26.54 250.973 26.7C251.233 26.94 251.363 27.2 251.363 27.48C251.383 27.76 251.273 28 251.033 28.2C250.373 28.76 249.533 29.23 248.513 29.61C247.493 29.97 246.513 30.15 245.573 30.15ZM245.123 15.51C243.583 15.51 242.313 15.99 241.313 16.95C240.313 17.89 239.713 19.12 239.513 20.64H250.493C250.333 19.12 249.773 17.89 248.813 16.95C247.873 15.99 246.643 15.51 245.123 15.51ZM257.7 30C256.94 30 256.56 29.62 256.56 28.86V14.73C256.56 13.97 256.94 13.59 257.7 13.59C258.46 13.59 258.84 13.97 258.84 14.73V16.02C259.44 15.22 260.18 14.59 261.06 14.13C261.94 13.65 262.91 13.41 263.97 13.41C264.89 13.41 265.6 13.54 266.1 13.8C266.6 14.06 266.79 14.44 266.67 14.94C266.57 15.4 266.33 15.64 265.95 15.66C265.59 15.66 265.16 15.64 264.66 15.6C263.54 15.5 262.54 15.62 261.66 15.96C260.8 16.28 260.11 16.78 259.59 17.46C259.09 18.14 258.84 18.95 258.84 19.89V28.86C258.84 29.62 258.46 30 257.7 30Z" fill="#2D83D1"/>
</svg>
