<svg width="207" height="65" viewBox="0 0 207 65" fill="none" xmlns="http://www.w3.org/2000/svg">
<path d="M73.02 29.2C71.94 29.2 70.9267 28.9933 69.98 28.58C69.0467 28.1667 68.22 27.5933 67.5 26.86C66.7933 26.1133 66.24 25.26 65.84 24.3C65.44 23.3267 65.24 22.2867 65.24 21.18C65.24 20.0867 65.4333 19.06 65.82 18.1C66.22 17.1267 66.7733 16.2733 67.48 15.54C68.2 14.8067 69.0267 14.2333 69.96 13.82C70.9067 13.3933 71.9267 13.18 73.02 13.18C73.98 13.18 74.8533 13.32 75.64 13.6C76.4267 13.88 77.1867 14.3267 77.92 14.94C78.04 15.0333 78.1067 15.1467 78.12 15.28C78.1467 15.4 78.1333 15.52 78.08 15.64C78.0267 15.7467 77.9467 15.8267 77.84 15.88C77.8133 15.9867 77.7467 16.0667 77.64 16.12C77.5333 16.1733 77.4067 16.1933 77.26 16.18C77.1267 16.1667 76.9933 16.1067 76.86 16C76.34 15.5467 75.7733 15.2133 75.16 15C74.5467 14.7733 73.8333 14.66 73.02 14.66C72.1533 14.66 71.34 14.8333 70.58 15.18C69.8333 15.5267 69.1733 16 68.6 16.6C68.0267 17.2 67.5733 17.8933 67.24 18.68C66.92 19.4667 66.76 20.3 66.76 21.18C66.76 22.0867 66.92 22.9333 67.24 23.72C67.5733 24.5067 68.0267 25.2 68.6 25.8C69.1733 26.4 69.8333 26.8733 70.58 27.22C71.34 27.5533 72.1533 27.72 73.02 27.72C73.7533 27.72 74.4467 27.6 75.1 27.36C75.7533 27.12 76.3733 26.7733 76.96 26.32C77.12 26.1867 77.2867 26.1333 77.46 26.16C77.6467 26.1867 77.8067 26.2667 77.94 26.4C78.0733 26.5333 78.14 26.7067 78.14 26.92C78.14 27.0267 78.12 27.1267 78.08 27.22C78.0533 27.3 78 27.3867 77.92 27.48C77.24 28.1067 76.48 28.5533 75.64 28.82C74.8 29.0733 73.9267 29.2 73.02 29.2ZM85.2316 18.06C85.3916 18.06 85.5382 18.1 85.6716 18.18C85.8049 18.26 85.9116 18.3933 85.9916 18.58L90.3316 28.02C90.4249 28.2067 90.4316 28.3867 90.3516 28.56C90.2849 28.72 90.1582 28.8467 89.9716 28.94C89.7582 29.0333 89.5649 29.0533 89.3916 29C89.2182 28.9333 89.0782 28.8 88.9716 28.6L84.8316 19.38H85.7316L81.5116 28.58C81.4182 28.78 81.2716 28.9133 81.0716 28.98C80.8849 29.0333 80.6916 29.0133 80.4916 28.92C80.3049 28.8267 80.1716 28.7 80.0916 28.54C80.0249 28.3667 80.0316 28.1867 80.1116 28L84.5116 18.58C84.6716 18.2333 84.9116 18.06 85.2316 18.06ZM92.8294 33.78C92.536 33.7933 92.2427 33.7533 91.9494 33.66C91.6694 33.58 91.3894 33.46 91.1094 33.3C90.896 33.1667 90.7627 32.9933 90.7094 32.78C90.6427 32.58 90.6827 32.3867 90.8294 32.2C90.9627 32.0267 91.1227 31.9333 91.3094 31.92C91.5094 31.92 91.716 31.9733 91.9294 32.08C92.076 32.1733 92.2227 32.24 92.3694 32.28C92.516 32.32 92.6827 32.34 92.8694 32.34C93.3094 32.3267 93.7294 32.12 94.1294 31.72C94.5427 31.32 94.916 30.74 95.2494 29.98L100.229 18.48C100.309 18.28 100.443 18.1467 100.629 18.08C100.829 18 101.029 18.0067 101.229 18.1C101.416 18.18 101.536 18.3133 101.589 18.5C101.656 18.6867 101.643 18.8867 101.549 19.1L96.5494 30.58C96.1227 31.54 95.5827 32.3133 94.9294 32.9C94.2894 33.4867 93.5894 33.78 92.8294 33.78ZM97.0094 28.66C96.8094 28.7533 96.6227 28.7733 96.4494 28.72C96.276 28.6533 96.136 28.52 96.0294 28.32L91.5694 19.08C91.476 18.88 91.4627 18.6933 91.5294 18.52C91.596 18.3467 91.7294 18.2133 91.9294 18.12C92.1294 18.0267 92.316 18.0133 92.4894 18.08C92.6627 18.1333 92.796 18.26 92.8894 18.46L97.2894 27.66C97.3827 27.86 97.4094 28.0533 97.3694 28.24C97.3294 28.4267 97.2094 28.5667 97.0094 28.66ZM107.681 25.62C106.707 25.62 105.887 25.42 105.221 25.02C104.567 24.62 104.067 24.0533 103.721 23.32C103.374 22.5867 103.201 21.7267 103.201 20.74V18.84C103.201 18.6 103.267 18.4133 103.401 18.28C103.547 18.1333 103.741 18.06 103.981 18.06C104.207 18.06 104.387 18.1333 104.521 18.28C104.667 18.4133 104.741 18.6 104.741 18.84V20.74C104.741 21.7933 104.994 22.6267 105.501 23.24C106.021 23.8533 106.801 24.16 107.841 24.16C108.681 24.16 109.361 24.0133 109.881 23.72C110.414 23.4133 110.681 23.0267 110.681 22.56H111.461C111.447 23.1467 111.274 23.6733 110.941 24.14C110.607 24.5933 110.161 24.9533 109.601 25.22C109.041 25.4867 108.401 25.62 107.681 25.62ZM111.461 29C111.221 29 111.027 28.9333 110.881 28.8C110.747 28.6533 110.681 28.46 110.681 28.22V18.84C110.681 18.6 110.747 18.4133 110.881 18.28C111.027 18.1333 111.221 18.06 111.461 18.06C111.687 18.06 111.867 18.1333 112.001 18.28C112.147 18.4133 112.221 18.6 112.221 18.84V28.22C112.221 28.46 112.147 28.6533 112.001 28.8C111.867 28.9333 111.687 29 111.461 29ZM120.64 29.1C119.613 29.1 118.693 28.86 117.88 28.38C117.066 27.8867 116.42 27.22 115.94 26.38C115.473 25.54 115.24 24.5933 115.24 23.54C115.24 22.4733 115.48 21.52 115.96 20.68C116.453 19.84 117.12 19.18 117.96 18.7C118.8 18.2067 119.746 17.96 120.8 17.96C121.853 17.96 122.793 18.2067 123.62 18.7C124.46 19.18 125.12 19.84 125.6 20.68C126.093 21.52 126.346 22.4733 126.36 23.54L125.74 24.02C125.74 24.98 125.513 25.8467 125.06 26.62C124.62 27.38 124.013 27.9867 123.24 28.44C122.48 28.88 121.613 29.1 120.64 29.1ZM120.8 27.7C121.573 27.7 122.26 27.52 122.86 27.16C123.473 26.8 123.953 26.3067 124.3 25.68C124.66 25.04 124.84 24.3267 124.84 23.54C124.84 22.74 124.66 22.0267 124.3 21.4C123.953 20.7733 123.473 20.28 122.86 19.92C122.26 19.5467 121.573 19.36 120.8 19.36C120.04 19.36 119.353 19.5467 118.74 19.92C118.126 20.28 117.64 20.7733 117.28 21.4C116.92 22.0267 116.74 22.74 116.74 23.54C116.74 24.3267 116.92 25.04 117.28 25.68C117.64 26.3067 118.126 26.8 118.74 27.16C119.353 27.52 120.04 27.7 120.8 27.7ZM125.58 29C125.353 29 125.166 28.9333 125.02 28.8C124.873 28.6533 124.8 28.4667 124.8 28.24V24.82L125.18 23.24L126.36 23.54V28.24C126.36 28.4667 126.286 28.6533 126.14 28.8C125.993 28.9333 125.806 29 125.58 29ZM134.115 29.12C133.168 29.12 132.321 28.9267 131.575 28.54C130.828 28.14 130.235 27.56 129.795 26.8C129.368 26.04 129.155 25.1133 129.155 24.02V18.82C129.155 18.6067 129.228 18.4267 129.375 18.28C129.521 18.1333 129.701 18.06 129.915 18.06C130.141 18.06 130.328 18.1333 130.475 18.28C130.621 18.4267 130.695 18.6067 130.695 18.82V24.02C130.695 24.8467 130.848 25.5267 131.155 26.06C131.475 26.5933 131.901 26.9933 132.435 27.26C132.981 27.5267 133.595 27.66 134.275 27.66C134.928 27.66 135.515 27.5333 136.035 27.28C136.568 27.0267 136.988 26.68 137.295 26.24C137.601 25.8 137.755 25.3 137.755 24.74H138.855C138.815 25.58 138.581 26.3333 138.155 27C137.741 27.6533 137.181 28.1733 136.475 28.56C135.768 28.9333 134.981 29.12 134.115 29.12ZM138.515 29C138.288 29 138.101 28.9333 137.955 28.8C137.821 28.6533 137.755 28.46 137.755 28.22V18.82C137.755 18.5933 137.821 18.4133 137.955 18.28C138.101 18.1333 138.288 18.06 138.515 18.06C138.741 18.06 138.928 18.1333 139.075 18.28C139.221 18.4133 139.295 18.5933 139.295 18.82V28.22C139.295 28.46 139.221 28.6533 139.075 28.8C138.928 28.9333 138.741 29 138.515 29ZM134.335 16.64C133.681 16.64 133.095 16.5333 132.575 16.32C132.055 16.0933 131.641 15.7867 131.335 15.4C131.041 15.0133 130.895 14.58 130.895 14.1C130.895 13.8867 130.961 13.7067 131.095 13.56C131.241 13.4133 131.415 13.34 131.615 13.34C131.828 13.34 132.001 13.4133 132.135 13.56C132.268 13.7067 132.335 13.9067 132.335 14.16C132.335 14.5333 132.528 14.8333 132.915 15.06C133.301 15.2867 133.775 15.4 134.335 15.4C134.908 15.4 135.381 15.2867 135.755 15.06C136.141 14.8333 136.335 14.5333 136.335 14.16C136.335 13.9067 136.401 13.7067 136.535 13.56C136.681 13.4133 136.855 13.34 137.055 13.34C137.268 13.34 137.441 13.4133 137.575 13.56C137.708 13.7067 137.775 13.8867 137.775 14.1C137.775 14.58 137.621 15.0133 137.315 15.4C137.021 15.7867 136.615 16.0933 136.095 16.32C135.575 16.5333 134.988 16.64 134.335 16.64ZM152.25 29C152.023 29 151.837 28.9333 151.69 28.8C151.543 28.6533 151.47 28.46 151.47 28.22V18.84C151.47 18.6 151.543 18.4133 151.69 18.28C151.837 18.1333 152.023 18.06 152.25 18.06C152.477 18.06 152.657 18.1333 152.79 18.28C152.923 18.4133 152.99 18.6 152.99 18.84V28.22C152.99 28.46 152.923 28.6533 152.79 28.8C152.657 28.9333 152.477 29 152.25 29ZM143.65 29C143.423 29 143.237 28.9333 143.09 28.8C142.957 28.6533 142.89 28.46 142.89 28.22V18.84C142.89 18.6 142.957 18.4133 143.09 18.28C143.237 18.1333 143.423 18.06 143.65 18.06C143.877 18.06 144.057 18.1333 144.19 18.28C144.337 18.4133 144.41 18.6 144.41 18.84V28.22C144.41 28.46 144.337 28.6533 144.19 28.8C144.057 28.9333 143.877 29 143.65 29ZM144.15 24.18V22.8H152.01V24.18H144.15ZM161.401 29.1C160.375 29.1 159.455 28.86 158.641 28.38C157.828 27.8867 157.181 27.22 156.701 26.38C156.235 25.54 156.001 24.5933 156.001 23.54C156.001 22.4733 156.241 21.52 156.721 20.68C157.215 19.84 157.881 19.18 158.721 18.7C159.561 18.2067 160.508 17.96 161.561 17.96C162.615 17.96 163.555 18.2067 164.381 18.7C165.221 19.18 165.881 19.84 166.361 20.68C166.855 21.52 167.108 22.4733 167.121 23.54L166.501 24.02C166.501 24.98 166.275 25.8467 165.821 26.62C165.381 27.38 164.775 27.9867 164.001 28.44C163.241 28.88 162.375 29.1 161.401 29.1ZM161.561 27.7C162.335 27.7 163.021 27.52 163.621 27.16C164.235 26.8 164.715 26.3067 165.061 25.68C165.421 25.04 165.601 24.3267 165.601 23.54C165.601 22.74 165.421 22.0267 165.061 21.4C164.715 20.7733 164.235 20.28 163.621 19.92C163.021 19.5467 162.335 19.36 161.561 19.36C160.801 19.36 160.115 19.5467 159.501 19.92C158.888 20.28 158.401 20.7733 158.041 21.4C157.681 22.0267 157.501 22.74 157.501 23.54C157.501 24.3267 157.681 25.04 158.041 25.68C158.401 26.3067 158.888 26.8 159.501 27.16C160.115 27.52 160.801 27.7 161.561 27.7ZM166.341 29C166.115 29 165.928 28.9333 165.781 28.8C165.635 28.6533 165.561 28.4667 165.561 28.24V24.82L165.941 23.24L167.121 23.54V28.24C167.121 28.4667 167.048 28.6533 166.901 28.8C166.755 28.9333 166.568 29 166.341 29ZM177.336 29C177.123 29 176.943 28.9333 176.796 28.8C176.663 28.6533 176.596 28.46 176.596 28.22V25.22H173.396V25.02C172.716 25.02 172.11 24.88 171.576 24.6C171.043 24.3067 170.63 23.9067 170.336 23.4C170.043 22.8933 169.896 22.3067 169.896 21.64C169.896 20.9467 170.056 20.3333 170.376 19.8C170.71 19.2533 171.17 18.8267 171.756 18.52C172.343 18.2133 173.016 18.06 173.776 18.06H177.336C177.576 18.06 177.763 18.1333 177.896 18.28C178.043 18.4133 178.116 18.6 178.116 18.84V28.24C178.103 28.4667 178.023 28.6533 177.876 28.8C177.743 28.9333 177.563 29 177.336 29ZM169.856 28.8C169.696 28.6533 169.616 28.4933 169.616 28.32C169.63 28.1467 169.696 27.98 169.816 27.82L172.616 24.26L174.596 24.3L170.996 28.72C170.836 28.92 170.636 29.0133 170.396 29C170.17 29 169.99 28.9333 169.856 28.8ZM173.776 23.9H176.596V19.48H173.776C173.096 19.48 172.53 19.68 172.076 20.08C171.623 20.4667 171.396 20.9867 171.396 21.64C171.396 22.3467 171.623 22.9 172.076 23.3C172.53 23.7 173.096 23.9 173.776 23.9ZM74.3 50.8C74.1667 50.9333 73.9867 51 73.76 51C73.5467 51 73.3733 50.9267 73.24 50.78L68.46 45.54L73.04 40.3C73.1733 40.1533 73.34 40.0733 73.54 40.06C73.74 40.0467 73.9133 40.1 74.06 40.22C74.22 40.3667 74.3067 40.5333 74.32 40.72C74.3333 40.8933 74.2733 41.06 74.14 41.22L70.38 45.46L74.34 49.82C74.4733 49.9667 74.54 50.1333 74.54 50.32C74.54 50.4933 74.46 50.6533 74.3 50.8ZM66.54 51C66.3133 51 66.1333 50.9333 66 50.8C65.8667 50.6533 65.8 50.4667 65.8 50.24V40.84C65.8 40.6 65.8667 40.4133 66 40.28C66.1333 40.1333 66.3133 40.06 66.54 40.06C66.78 40.06 66.9667 40.1333 67.1 40.28C67.2467 40.4133 67.32 40.6 67.32 40.84V44.8H69.76V46.2H67.32V50.24C67.32 50.4667 67.2467 50.6533 67.1 50.8C66.9667 50.9333 66.78 51 66.54 51ZM80.8544 51.1C79.8277 51.1 78.9077 50.86 78.0944 50.38C77.281 49.8867 76.6344 49.22 76.1544 48.38C75.6877 47.54 75.4544 46.5933 75.4544 45.54C75.4544 44.4733 75.6944 43.52 76.1744 42.68C76.6677 41.84 77.3344 41.18 78.1744 40.7C79.0144 40.2067 79.961 39.96 81.0144 39.96C82.0677 39.96 83.0077 40.2067 83.8344 40.7C84.6744 41.18 85.3344 41.84 85.8144 42.68C86.3077 43.52 86.561 44.4733 86.5744 45.54L85.9544 46.02C85.9544 46.98 85.7277 47.8467 85.2744 48.62C84.8344 49.38 84.2277 49.9867 83.4544 50.44C82.6944 50.88 81.8277 51.1 80.8544 51.1ZM81.0144 49.7C81.7877 49.7 82.4744 49.52 83.0744 49.16C83.6877 48.8 84.1677 48.3067 84.5144 47.68C84.8744 47.04 85.0544 46.3267 85.0544 45.54C85.0544 44.74 84.8744 44.0267 84.5144 43.4C84.1677 42.7733 83.6877 42.28 83.0744 41.92C82.4744 41.5467 81.7877 41.36 81.0144 41.36C80.2544 41.36 79.5677 41.5467 78.9544 41.92C78.341 42.28 77.8544 42.7733 77.4944 43.4C77.1344 44.0267 76.9544 44.74 76.9544 45.54C76.9544 46.3267 77.1344 47.04 77.4944 47.68C77.8544 48.3067 78.341 48.8 78.9544 49.16C79.5677 49.52 80.2544 49.7 81.0144 49.7ZM85.7944 51C85.5677 51 85.381 50.9333 85.2344 50.8C85.0877 50.6533 85.0144 50.4667 85.0144 50.24V46.82L85.3944 45.24L86.5744 45.54V50.24C86.5744 50.4667 86.501 50.6533 86.3544 50.8C86.2077 50.9333 86.021 51 85.7944 51ZM90.3495 55.68C90.1095 55.68 89.9162 55.6067 89.7695 55.46C89.6362 55.3267 89.5695 55.14 89.5695 54.9V45.46C89.5829 44.42 89.8295 43.4867 90.3095 42.66C90.8029 41.82 91.4629 41.16 92.2895 40.68C93.1295 40.2 94.0695 39.96 95.1095 39.96C96.1762 39.96 97.1295 40.2067 97.9695 40.7C98.8095 41.18 99.4695 41.84 99.9495 42.68C100.443 43.52 100.69 44.4733 100.69 45.54C100.69 46.5933 100.45 47.54 99.9695 48.38C99.5029 49.22 98.8629 49.8867 98.0495 50.38C97.2362 50.86 96.3162 51.1 95.2895 51.1C94.3962 51.1 93.5829 50.9133 92.8495 50.54C92.1295 50.1533 91.5495 49.6467 91.1095 49.02V54.9C91.1095 55.14 91.0362 55.3267 90.8895 55.46C90.7562 55.6067 90.5762 55.68 90.3495 55.68ZM95.1095 49.7C95.8829 49.7 96.5762 49.52 97.1895 49.16C97.8029 48.8 98.2829 48.3067 98.6295 47.68C98.9895 47.04 99.1695 46.3267 99.1695 45.54C99.1695 44.74 98.9895 44.0267 98.6295 43.4C98.2829 42.7733 97.8029 42.28 97.1895 41.92C96.5762 41.5467 95.8829 41.36 95.1095 41.36C94.3495 41.36 93.6629 41.5467 93.0495 41.92C92.4362 42.28 91.9562 42.7733 91.6095 43.4C91.2629 44.0267 91.0895 44.74 91.0895 45.54C91.0895 46.3267 91.2629 47.04 91.6095 47.68C91.9562 48.3067 92.4362 48.8 93.0495 49.16C93.6629 49.52 94.3495 49.7 95.1095 49.7ZM118.49 51C118.263 51 118.077 50.9333 117.93 50.8C117.783 50.6533 117.71 50.4667 117.71 50.24V44.48C117.71 43.5333 117.463 42.7867 116.97 42.24C116.477 41.68 115.843 41.4 115.07 41.4C114.243 41.4 113.563 41.68 113.03 42.24C112.51 42.7867 112.257 43.52 112.27 44.44H110.89C110.903 43.5467 111.097 42.76 111.47 42.08C111.843 41.4 112.357 40.8733 113.01 40.5C113.663 40.1267 114.403 39.94 115.23 39.94C116.017 39.94 116.71 40.1267 117.31 40.5C117.923 40.8733 118.397 41.4 118.73 42.08C119.077 42.76 119.25 43.56 119.25 44.48V50.24C119.25 50.4667 119.177 50.6533 119.03 50.8C118.897 50.9333 118.717 51 118.49 51ZM104.49 51C104.25 51 104.057 50.9333 103.91 50.8C103.777 50.6533 103.71 50.4667 103.71 50.24V40.84C103.71 40.6133 103.777 40.4267 103.91 40.28C104.057 40.1333 104.25 40.06 104.49 40.06C104.717 40.06 104.897 40.1333 105.03 40.28C105.177 40.4267 105.25 40.6133 105.25 40.84V50.24C105.25 50.4667 105.177 50.6533 105.03 50.8C104.897 50.9333 104.717 51 104.49 51ZM111.51 51C111.283 51 111.097 50.9333 110.95 50.8C110.803 50.6533 110.73 50.4667 110.73 50.24V44.48C110.73 43.5333 110.483 42.7867 109.99 42.24C109.497 41.68 108.863 41.4 108.09 41.4C107.263 41.4 106.583 41.6733 106.05 42.22C105.517 42.7533 105.25 43.4533 105.25 44.32H104.15C104.177 43.4667 104.363 42.7133 104.71 42.06C105.07 41.3933 105.557 40.8733 106.17 40.5C106.783 40.1267 107.477 39.94 108.25 39.94C109.037 39.94 109.73 40.1267 110.33 40.5C110.943 40.8733 111.417 41.4 111.75 42.08C112.097 42.76 112.27 43.56 112.27 44.48V50.24C112.27 50.4667 112.197 50.6533 112.05 50.8C111.917 50.9333 111.737 51 111.51 51ZM127.635 51.1C126.569 51.1 125.615 50.86 124.775 50.38C123.935 49.9 123.275 49.24 122.795 48.4C122.315 47.56 122.075 46.6067 122.075 45.54C122.075 44.46 122.315 43.5 122.795 42.66C123.275 41.82 123.935 41.16 124.775 40.68C125.615 40.2 126.569 39.96 127.635 39.96C128.702 39.96 129.649 40.2 130.475 40.68C131.315 41.16 131.975 41.82 132.455 42.66C132.935 43.5 133.182 44.46 133.195 45.54C133.195 46.6067 132.949 47.56 132.455 48.4C131.975 49.24 131.315 49.9 130.475 50.38C129.649 50.86 128.702 51.1 127.635 51.1ZM127.635 49.7C128.409 49.7 129.102 49.52 129.715 49.16C130.329 48.8 130.809 48.3067 131.155 47.68C131.502 47.0533 131.675 46.34 131.675 45.54C131.675 44.74 131.502 44.0267 131.155 43.4C130.809 42.76 130.329 42.26 129.715 41.9C129.102 41.54 128.409 41.36 127.635 41.36C126.862 41.36 126.169 41.54 125.555 41.9C124.942 42.26 124.455 42.76 124.095 43.4C123.749 44.0267 123.575 44.74 123.575 45.54C123.575 46.34 123.749 47.0533 124.095 47.68C124.455 48.3067 124.942 48.8 125.555 49.16C126.169 49.52 126.862 49.7 127.635 49.7ZM139.771 47.62C138.797 47.62 137.977 47.42 137.311 47.02C136.657 46.62 136.157 46.0533 135.811 45.32C135.464 44.5867 135.291 43.7267 135.291 42.74V40.84C135.291 40.6 135.357 40.4133 135.491 40.28C135.637 40.1333 135.831 40.06 136.071 40.06C136.297 40.06 136.477 40.1333 136.611 40.28C136.757 40.4133 136.831 40.6 136.831 40.84V42.74C136.831 43.7933 137.084 44.6267 137.591 45.24C138.111 45.8533 138.891 46.16 139.931 46.16C140.771 46.16 141.451 46.0133 141.971 45.72C142.504 45.4133 142.771 45.0267 142.771 44.56H143.551C143.537 45.1467 143.364 45.6733 143.031 46.14C142.697 46.5933 142.251 46.9533 141.691 47.22C141.131 47.4867 140.491 47.62 139.771 47.62ZM143.551 51C143.311 51 143.117 50.9333 142.971 50.8C142.837 50.6533 142.771 50.46 142.771 50.22V40.84C142.771 40.6 142.837 40.4133 142.971 40.28C143.117 40.1333 143.311 40.06 143.551 40.06C143.777 40.06 143.957 40.1333 144.091 40.28C144.237 40.4133 144.311 40.6 144.311 40.84V50.22C144.311 50.46 144.237 50.6533 144.091 50.8C143.957 50.9333 143.777 51 143.551 51ZM156.409 50.8C156.276 50.9333 156.096 51 155.869 51C155.656 51 155.483 50.9267 155.349 50.78L150.569 45.54L155.149 40.3C155.283 40.1533 155.449 40.0733 155.649 40.06C155.849 40.0467 156.023 40.1 156.169 40.22C156.329 40.3667 156.416 40.5333 156.429 40.72C156.443 40.8933 156.383 41.06 156.249 41.22L152.489 45.46L156.449 49.82C156.583 49.9667 156.649 50.1333 156.649 50.32C156.649 50.4933 156.569 50.6533 156.409 50.8ZM148.649 51C148.423 51 148.243 50.9333 148.109 50.8C147.976 50.6533 147.909 50.4667 147.909 50.24V40.84C147.909 40.6 147.976 40.4133 148.109 40.28C148.243 40.1333 148.423 40.06 148.649 40.06C148.889 40.06 149.076 40.1333 149.209 40.28C149.356 40.4133 149.429 40.6 149.429 40.84V44.8H151.869V46.2H149.429V50.24C149.429 50.4667 149.356 50.6533 149.209 50.8C149.076 50.9333 148.889 51 148.649 51ZM162.964 51.1C161.937 51.1 161.017 50.86 160.204 50.38C159.39 49.8867 158.744 49.22 158.264 48.38C157.797 47.54 157.564 46.5933 157.564 45.54C157.564 44.4733 157.804 43.52 158.284 42.68C158.777 41.84 159.444 41.18 160.284 40.7C161.124 40.2067 162.07 39.96 163.124 39.96C164.177 39.96 165.117 40.2067 165.944 40.7C166.784 41.18 167.444 41.84 167.924 42.68C168.417 43.52 168.67 44.4733 168.684 45.54L168.064 46.02C168.064 46.98 167.837 47.8467 167.384 48.62C166.944 49.38 166.337 49.9867 165.564 50.44C164.804 50.88 163.937 51.1 162.964 51.1ZM163.124 49.7C163.897 49.7 164.584 49.52 165.184 49.16C165.797 48.8 166.277 48.3067 166.624 47.68C166.984 47.04 167.164 46.3267 167.164 45.54C167.164 44.74 166.984 44.0267 166.624 43.4C166.277 42.7733 165.797 42.28 165.184 41.92C164.584 41.5467 163.897 41.36 163.124 41.36C162.364 41.36 161.677 41.5467 161.064 41.92C160.45 42.28 159.964 42.7733 159.604 43.4C159.244 44.0267 159.064 44.74 159.064 45.54C159.064 46.3267 159.244 47.04 159.604 47.68C159.964 48.3067 160.45 48.8 161.064 49.16C161.677 49.52 162.364 49.7 163.124 49.7ZM167.904 51C167.677 51 167.49 50.9333 167.344 50.8C167.197 50.6533 167.124 50.4667 167.124 50.24V46.82L167.504 45.24L168.684 45.54V50.24C168.684 50.4667 168.61 50.6533 168.464 50.8C168.317 50.9333 168.13 51 167.904 51Z" fill="black"/>
<path d="M21.0761 7.34048C24.2165 6.03826 27.6579 5.32086 31.2602 5.32086C39.9631 5.32086 47.6899 9.49959 52.5438 15.96V10.6418C52.5438 9.17243 53.7349 7.98131 55.2042 7.98131C56.6735 7.98131 57.8647 9.17243 57.8647 10.6418V31.9253C57.8647 33.3946 56.6735 34.5858 55.2042 34.5858C53.7349 34.5858 52.5438 33.3946 52.5438 31.9253C52.5438 20.1707 43.0148 10.6418 31.2602 10.6418C28.3696 10.6418 25.6199 11.2165 23.1142 12.2556C21.8196 12.7924 20.5889 13.4536 19.437 14.2248C18.276 15.002 17.1954 15.8907 16.2105 16.8756C15.2256 17.8605 14.3369 18.9411 13.5597 20.1021C12.7423 21.3231 11.0899 21.6503 9.86888 20.8329C8.6479 20.0155 8.32072 18.3631 9.13811 17.1421C10.1091 15.6916 11.2188 14.3424 12.448 13.1131C13.6773 11.8839 15.0265 10.7742 16.477 9.80321C17.9163 8.83969 19.4555 8.01249 21.0761 7.34048Z" fill="#2D83D1"/>
<path d="M7.31621 29.2649C8.78553 29.2649 9.97665 30.456 9.97665 31.9253C9.97665 43.6799 19.5056 53.2089 31.2602 53.2089C34.1508 53.2089 36.9005 52.6341 39.4062 51.5951C40.7008 51.0583 41.9315 50.397 43.0834 49.6259C44.2444 48.8486 45.3251 47.96 46.31 46.9751C47.2949 45.9902 48.1835 44.9095 48.9608 43.7485C49.7781 42.5275 51.4306 42.2003 52.6515 43.0177C53.8725 43.8351 54.1997 45.4875 53.3823 46.7085C52.4113 48.159 51.3016 49.5083 50.0724 50.7375C48.8432 51.9667 47.4939 53.0764 46.0434 54.0474C44.6041 55.0109 43.065 55.8381 41.4443 56.5101C38.3039 57.8124 34.8625 58.5298 31.2602 58.5298C22.5574 58.5298 14.8305 54.351 9.97665 47.8906V53.2089C9.97665 54.6782 8.78553 55.8693 7.31621 55.8693C5.84688 55.8693 4.65576 54.6782 4.65576 53.2089V31.9253C4.65576 30.456 5.84688 29.2649 7.31621 29.2649Z" fill="#2D83D1"/>
</svg>
