<svg width="29" height="29" viewBox="0 0 29 29" fill="none" xmlns="http://www.w3.org/2000/svg">
<path fill-rule="evenodd" clip-rule="evenodd" d="M0.333344 13C0.333344 6.00442 6.00443 0.333336 13 0.333336C19.9956 0.333336 25.6667 6.00442 25.6667 13C25.6667 16.0175 24.6115 18.7886 22.85 20.9644L27.7476 25.8619C28.2683 26.3826 28.2683 27.2268 27.7476 27.7475C27.2269 28.2682 26.3826 28.2682 25.8619 27.7475L20.9644 22.85C18.7886 24.6115 16.0175 25.6667 13 25.6667C6.00443 25.6667 0.333344 19.9956 0.333344 13ZM13 3C7.47719 3 3.00001 7.47718 3.00001 13C3.00001 18.5228 7.47719 23 13 23C18.5228 23 23 18.5228 23 13C23 7.47718 18.5228 3 13 3ZM8.28597 7.61923C9.49098 6.4143 11.1595 5.66667 13 5.66667C14.8406 5.66667 16.5091 6.41429 17.714 7.61926C18.2347 8.13996 18.2347 8.98418 17.714 9.50488C17.1933 10.0256 16.3491 10.0256 15.8284 9.50488C15.1031 8.77958 14.1049 8.33334 13 8.33334C11.8951 8.33334 10.8969 8.77957 10.1715 9.50491C9.6508 10.0256 8.80658 10.0256 8.2859 9.50485C7.76522 8.98413 7.76525 8.13991 8.28597 7.61923Z" fill="#2D83D1"/>
</svg>
